# xmcd
#
# Track frame offsets:
#	150
#	11882
#	25383
#	37550
#	50502
#	73589
#	86284
#	99105
#	111388
#	123395
#	137580
#	151324
#	163682
#	176360
#	189459
#	202437
#	215683
#	228220
#	241334
#	254621
#	267691
#	277254
#	290303
#	303156
#
# Disc length: 4190
#
# Revision: 1
# Processed by: cddbd v1.5.1PL0 Copyright (c) Steve Scherf et al.
# Submitted via: audiograbber 1.81.02
# Normalized: r0:TDELIM( - )
#
DISCID=5b105c18
DTITLE=Disc 2 - 1950 The R&B Hits
DYEAR=1950
DGENRE=Rhythm and Blues
TTITLE0=Little Esther and Mel Walker - Cupid Boogie
TTITLE1=Roy Brown - Hard Luck Blues
TTITLE2=Wynonie Harris - Good Morning Judge
TTITLE3=Larry Darnell - I Love My Baby
TTITLE4=Louis Jordan - Blue Light Boogie
TTITLE5=Lowell Fulson - Blue Shadows
TTITLE6=Amos Milburn - Sax Shack Boogie
TTITLE7=Roy Brown - Love Don't Love Nobody
TTITLE8=Lightnin' Hopkins - Shotgun Blues
TTITLE9=Helen Humes - Million Dollar Secret
TTITLE10=Joe Morris Orchestra and Laurie Tate - Anytime, Anyplace, Anywhere
TTITLE11=Tiny Bradshaw - I'm Going To Have Myself A Ball
TTITLE12=Ray-O-Vacs - Besame Mucho
TTITLE13=Percy Mayfield - Please Send Me Someone To Love
TTITLE14=Ruth Brown - Teardrops From My Eyes
TTITLE15=Roy Brown - Cadillac Baby
TTITLE16=Floyd Dixon - Sad Journey
TTITLE17=Johnny Otis - Wedding Boogie
TTITLE18=Amos Milburn - Bad Bad Whiskey
TTITLE19=LLoyd Glenn - Old Time Shuffle Blues
TTITLE20=Fats Domino - Every Night Abount This Time
TTITLE21=Wynonie Harris and The Tiny Bradshaw Orchestra - Oh Babe
TTITLE22=Mel Walker and The Johnny Otis Orchestra - Rockin' Blues
TTITLE23=Piano Red - Rockin' With Red
EXTD=Indigo Recordings Ltd.\nwww.trojanrecords.com
EXTT0=
EXTT1=
EXTT2=
EXTT3=
EXTT4=
EXTT5=
EXTT6=
EXTT7=
EXTT8=
EXTT9=
EXTT10=
EXTT11=
EXTT12=
EXTT13=
EXTT14=
EXTT15=
EXTT16=
EXTT17=
EXTT18=
EXTT19=
EXTT20=
EXTT21=
EXTT22=
EXTT23=
PLAYORDER=
